<svg width="32" height="32" viewBox="0 0 32 32" fill="none" xmlns="http://www.w3.org/2000/svg">
  <rect width="32" height="32" rx="6" fill="#080810"/>
  <!-- Dot matrix 4x4 — cada dot 5x5 con 1.5px gap -->
  <rect x="3"  y="3"  width="5.5" height="5.5" rx="1" fill="#FF5C3A"/>
  <rect x="10" y="3"  width="5.5" height="5.5" rx="1" fill="#FF5C3A"/>
  <rect x="17" y="3"  width="5.5" height="5.5" rx="1" fill="#FF5C3A"/>
  <rect x="24" y="3"  width="5.5" height="5.5" rx="1" fill="#FF5C3A" opacity="0.3"/>

  <rect x="3"  y="10" width="5.5" height="5.5" rx="1" fill="#FF5C3A"/>
  <rect x="10" y="10" width="5.5" height="5.5" rx="1" fill="#00C9A7"/>
  <rect x="17" y="10" width="5.5" height="5.5" rx="1" fill="#FF5C3A" opacity="0.15"/>
  <rect x="24" y="10" width="5.5" height="5.5" rx="1" fill="#FF5C3A"/>

  <rect x="3"  y="17" width="5.5" height="5.5" rx="1" fill="#FF5C3A"/>
  <rect x="10" y="17" width="5.5" height="5.5" rx="1" fill="#FF5C3A"/>
  <rect x="17" y="17" width="5.5" height="5.5" rx="1" fill="#FF5C3A"/>
  <rect x="24" y="17" width="5.5" height="5.5" rx="1" fill="#00C9A7" opacity="0.7"/>

  <rect x="3"  y="24" width="5.5" height="5.5" rx="1" fill="#FF5C3A" opacity="0.2"/>
  <rect x="10" y="24" width="5.5" height="5.5" rx="1" fill="#FF5C3A" opacity="0.5"/>
  <rect x="17" y="24" width="5.5" height="5.5" rx="1" fill="#00C9A7" opacity="0.45"/>
  <rect x="24" y="24" width="5.5" height="5.5" rx="1" fill="#FF5C3A"/>
</svg>
